<?xml version="1.0" encoding="UTF-8" standalone="no"?>
<svg width="265px" height="68px" viewBox="0 0 265 68" version="1.1" xmlns="http://www.w3.org/2000/svg" xmlns:xlink="http://www.w3.org/1999/xlink" xmlns:sketch="http://www.bohemiancoding.com/sketch/ns">
    <!-- Generator: Sketch 3.4 (15575) - http://www.bohemiancoding.com/sketch -->
    <title>coolmark</title>
    <desc>Created with Sketch.</desc>
    <defs>
        <linearGradient x1="50%" y1="0%" x2="50%" y2="100%" id="linearGradient-1">
            <stop stop-color="#9F5080" offset="0%"></stop>
            <stop stop-color="#3C2833" offset="100%"></stop>
        </linearGradient>
    </defs>
    <g id="CoolMark-Logo" stroke="none" stroke-width="1" fill="none" fill-rule="evenodd" sketch:type="MSPage">
        <g id="coolmark" sketch:type="MSArtboardGroup">
            <g id="CoolMark" sketch:type="MSLayerGroup" transform="translate(9.000000, 4.000000)">
                <g id="Oval-1-+-Oval-1-Copy-2-+-Oval-1-Copy-3" sketch:type="MSShapeGroup">
                    <path d="M30.3396461,60.6792922 C47.09577,60.6792922 60.6792922,47.09577 60.6792922,30.3396461 C60.6792922,13.5835223 47.09577,0 30.3396461,0 C13.5835223,0 0,13.5835223 0,30.3396461 C0,47.09577 13.5835223,60.6792922 30.3396461,60.6792922 Z M30.6924327,55.0347069 C44.1362995,55.0347069 55.0347069,44.1362995 55.0347069,30.6924327 C55.0347069,17.2485659 44.1362995,6.35015849 30.6924327,6.35015849 C17.2485659,6.35015849 6.35015849,17.2485659 6.35015849,30.6924327 C6.35015849,44.1362995 17.2485659,55.0347069 30.6924327,55.0347069 Z" id="Oval-1" fill="url(#linearGradient-1)"></path>
                    <path d="M36,47.8016181 C34.2187438,48.3782393 32.318208,48.6898046 30.3449023,48.6898046 C20.2132925,48.6898046 12,40.4765121 12,30.3449023 C12,20.2132925 20.2132925,12 30.3449023,12 C32.318208,12 34.2187438,12.3115653 36,12.8881865 L36,47.8016181 Z" id="Oval-1-Copy-2" fill="#632A49"></path>
                    <ellipse id="Oval-1-Copy-3" fill="#FFFFFF" cx="30.5835975" cy="30.5835975" rx="10.5835975" ry="10.5835975"></ellipse>
                </g>
                <path d="M76.216,23.416 C77.9760088,23.416 79.6319922,23.7519966 81.184,24.424 C82.7360078,25.0960034 84.0879942,26.0079942 85.24,27.16 C86.3920058,28.3120058 87.3039966,29.6719922 87.976,31.24 C88.6480034,32.8080078 88.984,34.4719912 88.984,36.232 C88.984,37.9920088 88.6480034,39.6479922 87.976,41.2 C87.3039966,42.7520078 86.3920058,44.1039942 85.24,45.256 C84.0879942,46.4080058 82.7360078,47.3199966 81.184,47.992 C79.6319922,48.6640034 77.9760088,49 76.216,49 C74.4559912,49 72.8000078,48.6640034 71.248,47.992 C69.6959922,47.3199966 68.3360058,46.4080058 67.168,45.256 C65.9999942,44.1039942 65.0800034,42.7520078 64.408,41.2 C63.7359966,39.6479922 63.4,37.9920088 63.4,36.232 C63.4,34.4719912 63.7359966,32.8080078 64.408,31.24 C65.0800034,29.6719922 65.9999942,28.3120058 67.168,27.16 C68.3360058,26.0079942 69.6959922,25.0960034 71.248,24.424 C72.8000078,23.7519966 74.4559912,23.416 76.216,23.416 L76.216,23.416 Z M76.216,44.008 C77.3040054,44.008 78.3199953,43.808002 79.264,43.408 C80.2080047,43.007998 81.0319965,42.4560035 81.736,41.752 C82.4400035,41.0479965 82.9999979,40.2240047 83.416,39.28 C83.8320021,38.3359953 84.04,37.3200054 84.04,36.232 C84.04,35.1439946 83.8320021,34.1280047 83.416,33.184 C82.9999979,32.2399953 82.4400035,31.4160035 81.736,30.712 C81.0319965,30.0079965 80.2080047,29.4480021 79.264,29.032 C78.3199953,28.6159979 77.3040054,28.408 76.216,28.408 C75.1279946,28.408 74.1120047,28.6159979 73.168,29.032 C72.2239953,29.4480021 71.4000035,30.0079965 70.696,30.712 C69.9919965,31.4160035 69.4320021,32.2399953 69.016,33.184 C68.5999979,34.1280047 68.392,35.1439946 68.392,36.232 C68.392,37.3200054 68.5999979,38.3359953 69.016,39.28 C69.4320021,40.2240047 69.9919965,41.0479965 70.696,41.752 C71.4000035,42.4560035 72.2239953,43.007998 73.168,43.408 C74.1120047,43.808002 75.1279946,44.008 76.216,44.008 L76.216,44.008 Z M106.6,23.416 C108.360009,23.416 110.015992,23.7519966 111.568,24.424 C113.120008,25.0960034 114.471994,26.0079942 115.624,27.16 C116.776006,28.3120058 117.687997,29.6719922 118.36,31.24 C119.032003,32.8080078 119.368,34.4719912 119.368,36.232 C119.368,37.9920088 119.032003,39.6479922 118.36,41.2 C117.687997,42.7520078 116.776006,44.1039942 115.624,45.256 C114.471994,46.4080058 113.120008,47.3199966 111.568,47.992 C110.015992,48.6640034 108.360009,49 106.6,49 C104.839991,49 103.184008,48.6640034 101.632,47.992 C100.079992,47.3199966 98.7200058,46.4080058 97.552,45.256 C96.3839942,44.1039942 95.4640034,42.7520078 94.792,41.2 C94.1199966,39.6479922 93.784,37.9920088 93.784,36.232 C93.784,34.4719912 94.1199966,32.8080078 94.792,31.24 C95.4640034,29.6719922 96.3839942,28.3120058 97.552,27.16 C98.7200058,26.0079942 100.079992,25.0960034 101.632,24.424 C103.184008,23.7519966 104.839991,23.416 106.6,23.416 L106.6,23.416 Z M106.6,44.008 C107.688005,44.008 108.703995,43.808002 109.648,43.408 C110.592005,43.007998 111.415996,42.4560035 112.12,41.752 C112.824004,41.0479965 113.383998,40.2240047 113.8,39.28 C114.216002,38.3359953 114.424,37.3200054 114.424,36.232 C114.424,35.1439946 114.216002,34.1280047 113.8,33.184 C113.383998,32.2399953 112.824004,31.4160035 112.12,30.712 C111.415996,30.0079965 110.592005,29.4480021 109.648,29.032 C108.703995,28.6159979 107.688005,28.408 106.6,28.408 C105.511995,28.408 104.496005,28.6159979 103.552,29.032 C102.607995,29.4480021 101.784004,30.0079965 101.08,30.712 C100.375996,31.4160035 99.8160021,32.2399953 99.4,33.184 C98.9839979,34.1280047 98.776,35.1439946 98.776,36.232 C98.776,37.3200054 98.9839979,38.3359953 99.4,39.28 C99.8160021,40.2240047 100.375996,41.0479965 101.08,41.752 C101.784004,42.4560035 102.607995,43.007998 103.552,43.408 C104.496005,43.808002 105.511995,44.008 106.6,44.008 L106.6,44.008 Z M129.4,49 L124.168,49 L124.168,13.384 L129.4,13.384 L129.4,49 Z M135.16,49 L135.16,13.384 L149.416,29.656 L163.672,13.384 L163.672,49 L158.392,49 L158.392,27.064 L149.416,37 L140.344,26.92 L140.344,49 L135.16,49 Z M195.112,24.856 L195.112,49 L189.88,49 L189.88,45.544 C188.759994,46.9840072 187.400008,48.1359957 185.8,49 C184.199992,49.8640043 182.472009,50.296 180.616,50.296 C178.951992,50.296 177.384007,49.9440035 175.912,49.24 C174.439993,48.5359965 173.152006,47.5760061 172.048,46.36 C170.943994,45.1439939 170.072003,43.7280081 169.432,42.112 C168.791997,40.4959919 168.472,38.7600093 168.472,36.904 C168.472,35.0479907 168.791997,33.3120081 169.432,31.696 C170.072003,30.0799919 170.943994,28.6640061 172.048,27.448 C173.152006,26.2319939 174.439993,25.2720035 175.912,24.568 C177.384007,23.8639965 178.951992,23.512 180.616,23.512 C182.472009,23.512 184.199992,23.9359958 185.8,24.784 C187.400008,25.6320042 188.759994,26.7919926 189.88,28.264 L189.88,24.856 L195.112,24.856 Z M182.008,44.92 C183.096005,44.92 184.119995,44.7120021 185.08,44.296 C186.040005,43.8799979 186.871996,43.3120036 187.576,42.592 C188.280004,41.8719964 188.839998,41.0320048 189.256,40.072 C189.672002,39.1119952 189.88,38.0720056 189.88,36.952 C189.88,35.8639946 189.672002,34.8320049 189.256,33.856 C188.839998,32.8799951 188.280004,32.0320036 187.576,31.312 C186.871996,30.5919964 186.040005,30.0240021 185.08,29.608 C184.119995,29.1919979 183.096005,28.984 182.008,28.984 C180.919995,28.984 179.896005,29.1919979 178.936,29.608 C177.975995,30.0240021 177.136004,30.5919964 176.416,31.312 C175.695996,32.0320036 175.128002,32.8799951 174.712,33.856 C174.295998,34.8320049 174.088,35.8639946 174.088,36.952 C174.088,38.0720056 174.295998,39.1119952 174.712,40.072 C175.128002,41.0320048 175.695996,41.8719964 176.416,42.592 C177.136004,43.3120036 177.975995,43.8799979 178.936,44.296 C179.896005,44.7120021 180.919995,44.92 182.008,44.92 L182.008,44.92 Z M202.552,23.416 L207.784,23.416 L207.784,26.584 C208.232002,26.0079971 208.871996,25.4800024 209.704,25 C210.408004,24.6159981 211.335994,24.2560017 212.488,23.92 C213.640006,23.5839983 215.079991,23.416 216.808,23.416 L216.808,28.648 C215.943996,28.648 214.984005,28.7279992 213.928,28.888 C212.871995,29.0480008 211.888005,29.3119982 210.976,29.68 C210.063995,30.0480018 209.304003,30.535997 208.696,31.144 C208.087997,31.752003 207.784,32.5039955 207.784,33.4 L207.784,49 L202.552,49 L202.552,23.416 Z M222.568,13.384 L227.8,13.384 L227.8,34.312 L235.912,23.416 L242.296,23.416 L235.48,32.776 L244.12,49 L238.264,49 L232.072,37.48 L227.8,43.288 L227.8,49 L222.568,49 L222.568,13.384 Z" id="oolMark" fill="#882D5C" sketch:type="MSShapeGroup"></path>
            </g>
        </g>
    </g>
</svg>